<svg xmlns="http://www.w3.org/2000/svg" viewBox="0 0 120 120" fill="none">
  <defs>
    <linearGradient id="grad1" x1="0%" y1="0%" x2="100%" y2="100%">
      <stop offset="0%" style="stop-color:#3b82f6"/>
      <stop offset="50%" style="stop-color:#2563eb"/>
      <stop offset="100%" style="stop-color:#1d4ed8"/>
    </linearGradient>
    <linearGradient id="grad2" x1="0%" y1="0%" x2="100%" y2="100%">
      <stop offset="0%" style="stop-color:#60a5fa"/>
      <stop offset="100%" style="stop-color:#3b82f6"/>
    </linearGradient>
    <filter id="shadow" x="-20%" y="-20%" width="140%" height="140%">
      <feDropShadow dx="0" dy="2" stdDeviation="4" flood-color="#1d4ed8" flood-opacity="0.3"/>
    </filter>
  </defs>
  <!-- Background circle -->
  <circle cx="60" cy="60" r="56" fill="url(#grad1)" filter="url(#shadow)"/>
  <!-- Inner highlight -->
  <circle cx="60" cy="60" r="52" fill="none" stroke="url(#grad2)" stroke-width="1" opacity="0.4"/>
  <!-- First B -->
  <path d="M32 32 h18 c8 0 14 4 14 12 c0 5 -3 9 -8 11 c7 3 11 8 11 14 c0 9 -6 14 -15 14 h-18 v-51 z m18 22 c4 0 7 -2 7 -6 c0 -4 -3 -6 -7 -6 h-18 v12 h18 z m2 20 c5 0 8 -3 8 -7 c0 -4 -3 -7 -8 -7 h-18 v14 h18 z" fill="white"/>
  <!-- Second B -->
  <path d="M56 32 h18 c8 0 14 4 14 12 c0 5 -3 9 -8 11 c7 3 11 8 11 14 c0 9 -6 14 -15 14 h-18 v-51 z m18 22 c4 0 7 -2 7 -6 c0 -4 -3 -6 -7 -6 h-18 v12 h18 z m2 20 c5 0 8 -3 8 -7 c0 -4 -3 -7 -8 -7 h-18 v14 h18 z" fill="white" opacity="0.85"/>
</svg>
