<svg xmlns="http://www.w3.org/2000/svg" viewBox="0 0 400 100" fill="none">
  <defs>
    <linearGradient id="grad1" x1="0%" y1="0%" x2="100%" y2="100%">
      <stop offset="0%" style="stop-color:#3b82f6"/>
      <stop offset="50%" style="stop-color:#2563eb"/>
      <stop offset="100%" style="stop-color:#1d4ed8"/>
    </linearGradient>
  </defs>
  <!-- Icon -->
  <circle cx="45" cy="50" r="40" fill="url(#grad1)"/>
  <path d="M24 26 h13 c6 0 10 3 10 9 c0 4 -2 7 -6 8 c5 2 8 6 8 10 c0 7 -4 10 -11 10 h-14 v-37 z m13 16 c3 0 5 -1.5 5 -4.5 c0 -3 -2 -4.5 -5 -4.5 h-13 v9 h13 z m1.5 14 c3.5 0 6 -2 6 -5 c0 -3 -2.5 -5 -6 -5 h-13 v10 h13 z" fill="white"/>
  <path d="M42 26 h13 c6 0 10 3 10 9 c0 4 -2 7 -6 8 c5 2 8 6 8 10 c0 7 -4 10 -11 10 h-14 v-37 z m13 16 c3 0 5 -1.5 5 -4.5 c0 -3 -2 -4.5 -5 -4.5 h-13 v9 h13 z m1.5 14 c3.5 0 6 -2 6 -5 c0 -3 -2.5 -5 -6 -5 h-13 v10 h13 z" fill="white" opacity="0.85"/>
  <!-- Text -->
  <text x="100" y="42" font-family="system-ui, -apple-system, sans-serif" font-size="28" font-weight="700" fill="#1e293b" letter-spacing="-0.5">Bill By</text>
  <text x="100" y="74" font-family="system-ui, -apple-system, sans-serif" font-size="28" font-weight="700" fill="url(#grad1)" letter-spacing="-0.5">Billu</text>
</svg>
